<?xml version="1.0" encoding="utf-8"?>
<!-- Generator: Adobe Illustrator 16.0.4, SVG Export Plug-In . SVG Version: 6.00 Build 0)  -->
<!DOCTYPE svg PUBLIC "-//W3C//DTD SVG 1.1//EN" "http://www.w3.org/Graphics/SVG/1.1/DTD/svg11.dtd">
<svg version="1.1" id="Layer_1" xmlns="http://www.w3.org/2000/svg" xmlns:xlink="http://www.w3.org/1999/xlink" x="0px" y="0px"
	 width="53px" height="53px" viewBox="0 0 53 53" enable-background="new 0 0 53 53" xml:space="preserve">
<g>
	<g>
		<path fill="#FFFFFF" d="M14.765,18.311l1.388,10.221c1.64-2.019,3.659-3.912,5.93-5.678c8.454-6.813,20.693-9.211,27.381-9.337
			c-4.417-8.075-13.122-13.5-22.965-13.5c-14.637,0-26.497,11.861-26.497,26.498c0,2.397,0.378,4.794,0.883,6.94l12.871-15.143
			H14.765z M49.59,13.642c-6.309,1.388-12.87,3.786-17.918,7.318c-5.677,3.912-9.688,8.133-10.953,12.181l-0.126,0.246L20.34,34
			h-8.854l-1.264-9.506L1.137,35.092C4.923,45.565,14.891,53.01,26.499,53.01c14.637,0,26.498-11.861,26.498-26.497
			C52.997,21.844,51.734,17.428,49.59,13.642z M33.314,26.898h-2.658l-0.02,2.796h1.771l-0.426,1.313H30.98l-0.344,2.037h2.658
			v0.838h-4.304l0.021-7.854h4.303V26.898z M41.143,32.327c0,0.479-0.127,0.839-0.507,1.196c-0.38,0.359-0.759,0.479-1.266,0.479
			h-0.886c-0.633,0-1.014-0.119-1.393-0.479c-0.254-0.238-0.506-0.717-0.506-1.315h0.885v0.119c0,0.239,0.127,0.359,0.254,0.479
			c0.127,0.119,0.38,0.119,0.633,0.119s0.506-0.119,0.633-0.239s0.253-0.359,0.253-0.599c0-0.238-0.126-0.358-0.253-0.598
			l-1.898-2.035c-0.38-0.358-0.506-0.717-0.506-1.195v-0.479c0-0.479,0.126-0.839,0.506-1.198c0.379-0.358,0.76-0.479,1.266-0.479
			h0.886c1.14,0,1.646,0.598,1.772,1.676h-0.887c-0.126-0.6-0.379-0.839-0.886-0.839c-0.253,0-0.506,0.12-0.759,0.239
			c-0.127,0.12-0.254,0.359-0.254,0.6c0.254,0.479,0.38,0.717,0.507,0.837l1.898,2.034c0.38,0.359,0.507,0.719,0.507,1.197V32.327z
			 M46.458,28.26l1.899,2.033c0.379,0.359,0.506,0.719,0.506,1.197v0.718h0.126c0,0.479-0.126,0.837-0.506,1.196
			s-0.759,0.479-1.266,0.479h-0.886c-0.633,0-1.013-0.119-1.393-0.479c-0.254-0.238-0.506-0.718-0.506-1.316h1.012v0.12
			c0,0.239,0.127,0.358,0.254,0.479c0.126,0.12,0.379,0.12,0.633,0.12c0.253,0,0.506-0.12,0.633-0.24
			c0.127-0.119,0.253-0.358,0.253-0.598s-0.126-0.359-0.253-0.598l-1.898-2.035c-0.381-0.359-0.507-0.718-0.507-1.197V27.66
			c0-0.479,0.126-0.837,0.507-1.196c0.379-0.359,0.759-0.479,1.266-0.479h0.886c1.14,0,1.646,0.598,1.772,1.674h-0.887
			c-0.127-0.598-0.379-0.837-0.886-0.837c-0.253,0-0.507,0.12-0.76,0.24c-0.126,0.119-0.253,0.359-0.253,0.598
			C46.205,27.9,46.332,28.02,46.458,28.26z"/>
	</g>
</g>
</svg>
